<mxfile host="app.diagrams.net" modified="2024-03-03T19:22:26.727Z" agent="Mozilla/5.0 (X11; Linux x86_64) AppleWebKit/537.36 (KHTML, like Gecko) Chrome/122.0.0.0 Safari/537.36" etag="_RBPT9yzbEAuJvW8B7Ia" version="24.0.0" type="github">
  <diagram name="Page-1" id="BKqDx57j0ZqPQsNzVKFr">
    <mxGraphModel dx="1418" dy="743" grid="1" gridSize="10" guides="1" tooltips="1" connect="1" arrows="1" fold="1" page="1" pageScale="1" pageWidth="850" pageHeight="1100" math="0" shadow="0">
      <root>
        <mxCell id="0" />
        <mxCell id="1" parent="0" />
        <mxCell id="saX4zRUi23e5ykmQ4rgG-3" value="gt_command:GtCommandSubject" style="shape=umlLifeline;perimeter=lifelinePerimeter;whiteSpace=wrap;html=1;container=1;dropTarget=0;collapsible=0;recursiveResize=0;outlineConnect=0;portConstraint=eastwest;newEdgeStyle={&quot;curved&quot;:0,&quot;rounded&quot;:0};" parent="1" vertex="1">
          <mxGeometry x="7" y="8" width="190" height="212" as="geometry" />
        </mxCell>
        <mxCell id="saX4zRUi23e5ykmQ4rgG-18" value="" style="html=1;points=[[0,0,0,0,5],[0,1,0,0,-5],[1,0,0,0,5],[1,1,0,0,-5]];perimeter=orthogonalPerimeter;outlineConnect=0;targetShapes=umlLifeline;portConstraint=eastwest;newEdgeStyle={&quot;curved&quot;:0,&quot;rounded&quot;:0};" parent="saX4zRUi23e5ykmQ4rgG-3" vertex="1">
          <mxGeometry x="90" y="50" width="10" height="70" as="geometry" />
        </mxCell>
        <mxCell id="X3jZ_XZGRz5ofj76C_X2-1" value="_record()" style="html=1;verticalAlign=bottom;endArrow=block;curved=0;rounded=0;strokeColor=#000000;" parent="saX4zRUi23e5ykmQ4rgG-3" source="saX4zRUi23e5ykmQ4rgG-18" target="saX4zRUi23e5ykmQ4rgG-18" edge="1">
          <mxGeometry x="-0.0588" width="80" relative="1" as="geometry">
            <mxPoint x="100" y="100" as="sourcePoint" />
            <mxPoint x="180" y="100" as="targetPoint" />
            <Array as="points">
              <mxPoint x="160" y="110" />
              <mxPoint x="160" y="60" />
            </Array>
            <mxPoint as="offset" />
          </mxGeometry>
        </mxCell>
        <mxCell id="NPFZqhcyP4tH_BtR05BK-1" value="" style="html=1;points=[[0,0,0,0,5],[0,1,0,0,-5],[1,0,0,0,5],[1,1,0,0,-5]];perimeter=orthogonalPerimeter;outlineConnect=0;targetShapes=umlLifeline;portConstraint=eastwest;newEdgeStyle={&quot;curved&quot;:0,&quot;rounded&quot;:0};" parent="saX4zRUi23e5ykmQ4rgG-3" vertex="1">
          <mxGeometry x="90" y="140" width="10" height="30" as="geometry" />
        </mxCell>
        <mxCell id="NPFZqhcyP4tH_BtR05BK-2" value="notify(self.hit_observers, hit_labels)" style="html=1;verticalAlign=bottom;endArrow=block;curved=0;rounded=0;strokeColor=#000000;" parent="saX4zRUi23e5ykmQ4rgG-3" source="saX4zRUi23e5ykmQ4rgG-18" edge="1">
          <mxGeometry x="0.1429" width="80" relative="1" as="geometry">
            <mxPoint x="100" y="117" as="sourcePoint" />
            <mxPoint x="100" y="147" as="targetPoint" />
            <Array as="points">
              <mxPoint x="130" y="100" />
              <mxPoint x="170" y="100" />
              <mxPoint x="170" y="147" />
            </Array>
            <mxPoint as="offset" />
          </mxGeometry>
        </mxCell>
        <mxCell id="saX4zRUi23e5ykmQ4rgG-15" value=":TsHitObserver" style="shape=umlLifeline;whiteSpace=wrap;html=1;container=1;dropTarget=0;collapsible=0;recursiveResize=0;outlineConnect=0;portConstraint=eastwest;newEdgeStyle={&quot;curved&quot;:0,&quot;rounded&quot;:0};points=[[0,0,0,0,5],[0,1,0,0,-5],[1,0,0,0,5],[1,1,0,0,-5]];perimeter=rectanglePerimeter;targetShapes=umlLifeline;participant=label;" parent="1" vertex="1">
          <mxGeometry x="217" y="8" width="100" height="212" as="geometry" />
        </mxCell>
        <mxCell id="saX4zRUi23e5ykmQ4rgG-20" value="" style="html=1;points=[[0,0,0,0,5],[0,1,0,0,-5],[1,0,0,0,5],[1,1,0,0,-5]];perimeter=orthogonalPerimeter;outlineConnect=0;targetShapes=umlLifeline;portConstraint=eastwest;newEdgeStyle={&quot;curved&quot;:0,&quot;rounded&quot;:0};" parent="saX4zRUi23e5ykmQ4rgG-15" vertex="1">
          <mxGeometry x="45" y="154" width="10" height="15" as="geometry" />
        </mxCell>
        <mxCell id="saX4zRUi23e5ykmQ4rgG-21" value="update()" style="html=1;verticalAlign=bottom;endArrow=block;curved=0;rounded=0;strokeColor=#000000;" parent="1" target="saX4zRUi23e5ykmQ4rgG-20" edge="1">
          <mxGeometry x="-0.0345" y="-19" relative="1" as="geometry">
            <mxPoint x="107" y="169" as="sourcePoint" />
            <mxPoint x="257" y="169" as="targetPoint" />
            <Array as="points" />
            <mxPoint as="offset" />
          </mxGeometry>
        </mxCell>
        <mxCell id="X3jZ_XZGRz5ofj76C_X2-3" value="command_queue:Queue[Command]" style="shape=umlLifeline;perimeter=lifelinePerimeter;whiteSpace=wrap;html=1;container=1;dropTarget=0;collapsible=0;recursiveResize=0;outlineConnect=0;portConstraint=eastwest;newEdgeStyle={&quot;curved&quot;:0,&quot;rounded&quot;:0};" parent="1" vertex="1">
          <mxGeometry x="402" y="8" width="210" height="212" as="geometry" />
        </mxCell>
        <mxCell id="X3jZ_XZGRz5ofj76C_X2-4" value="" style="html=1;points=[[0,0,0,0,5],[0,1,0,0,-5],[1,0,0,0,5],[1,1,0,0,-5]];perimeter=orthogonalPerimeter;outlineConnect=0;targetShapes=umlLifeline;portConstraint=eastwest;newEdgeStyle={&quot;curved&quot;:0,&quot;rounded&quot;:0};" parent="X3jZ_XZGRz5ofj76C_X2-3" vertex="1">
          <mxGeometry x="100" y="154" width="10" height="15" as="geometry" />
        </mxCell>
        <mxCell id="X3jZ_XZGRz5ofj76C_X2-5" value="put(occ_cmd:OccupyNextEdgeCommand)" style="html=1;verticalAlign=bottom;endArrow=block;curved=0;rounded=0;strokeColor=#000000;" parent="1" source="saX4zRUi23e5ykmQ4rgG-20" target="X3jZ_XZGRz5ofj76C_X2-4" edge="1">
          <mxGeometry x="0.0046" width="80" relative="1" as="geometry">
            <mxPoint x="422" y="169" as="sourcePoint" />
            <mxPoint x="687" y="169" as="targetPoint" />
            <Array as="points" />
            <mxPoint as="offset" />
          </mxGeometry>
        </mxCell>
      </root>
    </mxGraphModel>
  </diagram>
</mxfile>
